<?xml version="1.0" encoding="UTF-8" standalone="no"?>
<!-- Created with Inkscape (http://www.inkscape.org/) -->

<svg
   xmlns:dc="http://purl.org/dc/elements/1.1/"
   xmlns:cc="http://creativecommons.org/ns#"
   xmlns:rdf="http://www.w3.org/1999/02/22-rdf-syntax-ns#"
   xmlns:svg="http://www.w3.org/2000/svg"
   xmlns="http://www.w3.org/2000/svg"
   xmlns:sodipodi="http://sodipodi.sourceforge.net/DTD/sodipodi-0.dtd"
   xmlns:inkscape="http://www.inkscape.org/namespaces/inkscape"
   version="1.1"
   width="15"
   height="15"
   viewBox="0 0 15 15"
   id="svg2"
   inkscape:version="0.48.5 r10040"
   sodipodi:docname="search.svg">
  <sodipodi:namedview
     pagecolor="#ffffff"
     bordercolor="#666666"
     borderopacity="1"
     objecttolerance="10"
     gridtolerance="10"
     guidetolerance="10"
     inkscape:pageopacity="0"
     inkscape:pageshadow="2"
     inkscape:window-width="1024"
     inkscape:window-height="548"
     id="namedview9"
     showgrid="false"
     inkscape:zoom="2.6074563"
     inkscape:cx="130.16063"
     inkscape:cy="36.007567"
     inkscape:window-x="0"
     inkscape:window-y="0"
     inkscape:window-maximized="1"
     inkscape:current-layer="svg2" />
  <metadata
     id="metadata11">
    <rdf:RDF>
      <cc:Work
         rdf:about="">
        <dc:format>image/svg+xml</dc:format>
        <dc:type
           rdf:resource="http://purl.org/dc/dcmitype/StillImage" />
        <dc:title></dc:title>
      </cc:Work>
    </rdf:RDF>
  </metadata>
  <defs
     id="defs9" />
  <g
     id="icomoon-ignore"
     transform="translate(0,-1009)" />
  <g
     transform="matrix(0.01953125,0,0,0.01953125,-2.4999976,-2.5)"
     id="g3225"
     style="fill:#808080;fill-opacity:0.98431373000000000">
    <g
       id="icomoon-ignore-7"
       style="fill:#808080;fill-opacity:0.98431373000000000" />
    <path
       d="M 896,832 832,896 584.576,648.576 C 537.152,683.072 479.168,704 416,704 256.96,704 128,575.04 128,416 128,256.96 256.96,128 416,128 c 159.04,0 288,128.96 288,288 0,63.168 -20.928,121.152 -55.424,168.576 z M 192,416 C 192,539.712 292.288,640 416,640 539.776,640 640,539.712 640,416 640,292.288 539.776,192 416,192 292.288,192 192,292.288 192,416 z"
       id="path3217"
       inkscape:connector-curvature="0"
       style="fill:#808080;fill-opacity:0.98431373000000000" />
  </g>
</svg>
